<?xml version="1.0" standalone="no"?>
<!DOCTYPE svg PUBLIC "-//W3C//DTD SVG 20010904//EN"
 "http://www.w3.org/TR/2001/REC-SVG-20010904/DTD/svg10.dtd">
<svg version="1.0" xmlns="http://www.w3.org/2000/svg"
 width="300.000000pt" height="300.000000pt" viewBox="0 0 300.000000 300.000000"
 preserveAspectRatio="xMidYMid meet">
<metadata>
Created by potrace 1.11, written by Peter Selinger 2001-2013
</metadata>
<g transform="translate(0.000000,300.000000) scale(0.100000,-0.100000)"
fill="#000000" stroke="none">
<path d="M1368 2995 c-2 -1 -30 -5 -63 -8 -277 -26 -576 -162 -789 -357 -120
-110 -200 -200 -270 -305 -128 -192 -206 -397 -233 -616 -10 -79 -10 -333 -1
-414 34 -290 185 -604 395 -820 145 -150 270 -244 428 -323 112 -56 272 -109
401 -131 88 -15 145 -18 294 -15 102 1 194 5 205 7 11 2 46 9 77 16 32 7 61
13 65 13 5 0 19 5 33 10 14 5 32 11 40 13 33 7 159 59 225 92 221 110 437 304
583 524 99 148 188 358 208 494 3 17 7 36 10 44 18 54 25 353 11 486 -19 182
-100 412 -202 576 -76 120 -245 309 -360 400 -192 152 -415 254 -646 295 -77
13 -400 29 -411 19z"/>
</g>
</svg>
